<?xml version="1.0" encoding="UTF-8" standalone="no"?>
<!-- Created with Inkscape (http://www.inkscape.org/) -->

<svg
   width="163.54599mm"
   height="106.66244mm"
   viewBox="0 0 163.54599 106.66246"
   version="1.1"
   id="svg1"
   xml:space="preserve"
   inkscape:version="1.4.3 (0d15f75042, 2025-12-25)"
   sodipodi:docname="favicon.svg"
   xmlns:inkscape="http://www.inkscape.org/namespaces/inkscape"
   xmlns:sodipodi="http://sodipodi.sourceforge.net/DTD/sodipodi-0.dtd"
   xmlns="http://www.w3.org/2000/svg"
   xmlns:svg="http://www.w3.org/2000/svg"><sodipodi:namedview
     id="namedview1"
     pagecolor="#a4a4a4"
     bordercolor="#000000"
     borderopacity="0.25"
     inkscape:showpageshadow="2"
     inkscape:pageopacity="0.0"
     inkscape:pagecheckerboard="0"
     inkscape:deskcolor="#d1d1d1"
     inkscape:document-units="mm"
     inkscape:zoom="1.0775838"
     inkscape:cx="121.56827"
     inkscape:cy="331.76074"
     inkscape:window-width="3396"
     inkscape:window-height="1356"
     inkscape:window-x="0"
     inkscape:window-y="0"
     inkscape:window-maximized="1"
     inkscape:current-layer="g28" /><defs
     id="defs1"><inkscape:path-effect
       effect="offset"
       id="path-effect34"
       is_visible="true"
       lpeversion="1.3"
       linejoin_type="miter"
       unit="px"
       offset="10"
       miter_limit="4"
       attempt_force_join="false"
       update_on_knot_move="true" /><inkscape:path-effect
       effect="offset"
       id="path-effect33"
       is_visible="true"
       lpeversion="1.3"
       linejoin_type="miter"
       unit="pc"
       offset="0.02"
       miter_limit="4"
       attempt_force_join="true"
       update_on_knot_move="true" /><inkscape:path-effect
       effect="offset"
       id="path-effect25"
       is_visible="true"
       lpeversion="1.3"
       linejoin_type="miter"
       unit="px"
       offset="10"
       miter_limit="4"
       attempt_force_join="false"
       update_on_knot_move="true" /><inkscape:path-effect
       effect="taper_stroke"
       start_shape="center | center | center"
       end_shape="center | center | center"
       id="path-effect23"
       is_visible="true"
       lpeversion="1"
       stroke_width="0.26458299"
       subpath="1"
       attach_start="0.2 | 0.2"
       end_offset="0.2 | 0.2"
       start_smoothing="0.5 | 0.5"
       end_smoothing="0.5 | 0.5"
       jointype="extrapolated"
       miter_limit="100" /><inkscape:path-effect
       effect="offset"
       id="path-effect22"
       is_visible="true"
       lpeversion="1.3"
       linejoin_type="miter"
       unit="px"
       offset="10"
       miter_limit="4"
       attempt_force_join="false"
       update_on_knot_move="true" /><inkscape:path-effect
       effect="offset"
       id="path-effect21"
       is_visible="true"
       lpeversion="1.3"
       linejoin_type="miter"
       unit="px"
       offset="10"
       miter_limit="4"
       attempt_force_join="false"
       update_on_knot_move="true" /><inkscape:path-effect
       effect="offset"
       id="path-effect20"
       is_visible="true"
       lpeversion="1.3"
       linejoin_type="miter"
       unit="pc"
       offset="0.02"
       miter_limit="4"
       attempt_force_join="true"
       update_on_knot_move="true" /><inkscape:path-effect
       effect="offset"
       id="path-effect11"
       is_visible="true"
       lpeversion="1.3"
       linejoin_type="miter"
       unit="px"
       offset="10"
       miter_limit="4"
       attempt_force_join="false"
       update_on_knot_move="true" /><inkscape:path-effect
       effect="offset"
       id="path-effect10"
       is_visible="true"
       lpeversion="1.3"
       linejoin_type="miter"
       unit="pc"
       offset="0.02"
       miter_limit="4"
       attempt_force_join="true"
       update_on_knot_move="true" /><inkscape:path-effect
       effect="offset"
       id="path-effect29"
       is_visible="true"
       lpeversion="1.3"
       linejoin_type="round"
       unit="mm"
       offset="2.2"
       miter_limit="2.9"
       attempt_force_join="false"
       update_on_knot_move="true" /><inkscape:path-effect
       effect="offset"
       id="path-effect28"
       is_visible="true"
       lpeversion="1.3"
       linejoin_type="miter"
       unit="pc"
       offset="0.02"
       miter_limit="4"
       attempt_force_join="true"
       update_on_knot_move="true" /><inkscape:path-effect
       effect="offset"
       id="path-effect18"
       is_visible="true"
       lpeversion="1.3"
       linejoin_type="miter"
       unit="pc"
       offset="0.02"
       miter_limit="4"
       attempt_force_join="true"
       update_on_knot_move="true" /><inkscape:path-effect
       effect="offset"
       id="path-effect9"
       is_visible="true"
       lpeversion="1.3"
       linejoin_type="miter"
       unit="pc"
       offset="0.02"
       miter_limit="4"
       attempt_force_join="true"
       update_on_knot_move="true" /><inkscape:path-effect
       effect="fillet_chamfer"
       id="path-effect1"
       is_visible="true"
       lpeversion="1"
       nodesatellites_param="F,1,0,1,0,0.50507631,0,37 @ F,1,0,1,0,1.4142137,0,37 @ F,1,0,1,0,0.50507631,0,37 @ F,1,0,1,0,1.4142137,0,37"
       radius="25"
       unit="px"
       method="auto"
       mode="F"
       chamfer_steps="37"
       flexible="true"
       use_knot_distance="true"
       apply_no_radius="true"
       apply_with_radius="true"
       only_selected="false"
       hide_knots="false" /><inkscape:path-effect
       effect="offset"
       id="path-effect77"
       is_visible="true"
       lpeversion="1.3"
       linejoin_type="miter"
       unit="mm"
       offset="2.9"
       miter_limit="4"
       attempt_force_join="false"
       update_on_knot_move="true" /><inkscape:path-effect
       effect="offset"
       id="path-effect67"
       is_visible="true"
       lpeversion="1.3"
       linejoin_type="miter"
       unit="mm"
       offset="1.9"
       miter_limit="4"
       attempt_force_join="false"
       update_on_knot_move="true" /><inkscape:path-effect
       effect="clone_original"
       css_properties=""
       attributes="style,clip-path,mask"
       linkeditem=""
       is_visible="true"
       method="d"
       allow_transforms="true"
       id="path-effect57"
       lpeversion="1" /><inkscape:path-effect
       effect="offset"
       id="path-effect56"
       is_visible="true"
       lpeversion="1.3"
       linejoin_type="miter"
       unit="mm"
       offset="4.3"
       miter_limit="4"
       attempt_force_join="false"
       update_on_knot_move="true" /><inkscape:path-effect
       effect="fillet_chamfer"
       id="path-effect54"
       is_visible="true"
       lpeversion="1"
       nodesatellites_param="F,0,0,1,0,2.6458333,0,5 @ F,0,0,1,0,2.6458333,0,5 @ F,0,0,1,0,2.6458333,0,5 @ F,0,0,1,0,2.6458333,0,5"
       radius="10"
       unit="px"
       method="auto"
       mode="F"
       chamfer_steps="5"
       flexible="false"
       use_knot_distance="true"
       apply_no_radius="true"
       apply_with_radius="true"
       only_selected="false"
       hide_knots="false" /><inkscape:path-effect
       effect="fillet_chamfer"
       id="path-effect45"
       is_visible="true"
       lpeversion="1"
       nodesatellites_param="F,0,0,1,0,0,0,1 @ F,0,0,1,0,0,0,1 @ F,0,0,1,0,5.5011441,0,1 @ F,0,0,1,0,0,0,1 @ F,0,0,1,0,0,0,1 @ F,0,0,1,0,0,0,1 @ F,0,0,1,0,7.4063236,0,1"
       radius="0"
       unit="px"
       method="auto"
       mode="F"
       chamfer_steps="1"
       flexible="false"
       use_knot_distance="true"
       apply_no_radius="true"
       apply_with_radius="true"
       only_selected="false"
       hide_knots="false" /><inkscape:path-effect
       effect="fillet_chamfer"
       id="path-effect44"
       is_visible="true"
       lpeversion="1"
       nodesatellites_param="F,0,0,1,0,1.9135547,0,1 @ F,0,0,1,0,5.6617561,0,1 @ F,0,0,1,0,1.9189953,0,1 @ F,0,0,1,0,3.5657776,0,1 @ F,0,0,1,0,3.4510388,0,1 @ F,0,0,1,0,3.9820251,0,1 @ F,0,0,1,0,1.3197705,0,1 @ F,0,0,1,0,4.7103767,0,1 @ F,0,0,1,0,1.784548,0,1 @ F,0,0,1,0,1.1293466,0,1 @ F,0,0,1,0,1.9842115,0,1 @ F,0,0,1,0,1.8623571,0,1 @ F,0,0,1,0,1.8476371,0,1 @ F,0,0,1,0,3.7900647,0,1 @ F,0,0,1,0,3.3962254,0,1 @ F,0,0,1,0,1.4095492,0,1 @ F,0,0,1,0,1.8638194,0,1 @ F,0,0,1,0,3.4302216,0,1 @ IF,0,0,1,0,0.41385678,0,1 @ F,0,0,1,0,3.3353172,0,1 @ F,0,0,1,0,8.7266453,0,1 @ F,0,0,1,0,1.8670456,0,1 @ F,0,0,1,0,0.72429093,0,1 @ F,0,0,1,0,8.3962452,0,1 @ F,0,0,1,0,0.87898676,0,1 @ F,0,0,1,0,2.2827663,0,1 @ F,0,1,1,0,8.5768711,0,1"
       radius="0"
       unit="px"
       method="auto"
       mode="F"
       chamfer_steps="1"
       flexible="false"
       use_knot_distance="true"
       apply_no_radius="true"
       apply_with_radius="true"
       only_selected="true"
       hide_knots="false" /><inkscape:path-effect
       effect="fillet_chamfer"
       id="path-effect27"
       is_visible="true"
       lpeversion="1"
       nodesatellites_param="F,0,0,1,0,0,0,1 @ F,0,0,1,0,0,0,1 @ F,0,1,1,0,0.66779968,0,1 @ F,0,0,1,0,0,0,1 @ F,0,0,1,0,0,0,1 @ F,0,0,1,0,0,0,1 @ F,0,0,1,0,0,0,1 @ F,0,0,1,0,0,0,1 @ F,0,0,1,0,0,0,1 @ F,0,0,1,0,0.39711203,0,1 @ F,0,0,1,0,0,0,1"
       radius="0"
       unit="px"
       method="auto"
       mode="F"
       chamfer_steps="1"
       flexible="false"
       use_knot_distance="true"
       apply_no_radius="true"
       apply_with_radius="true"
       only_selected="true"
       hide_knots="false" /><inkscape:path-effect
       effect="fillet_chamfer"
       id="path-effect26"
       is_visible="true"
       lpeversion="1"
       nodesatellites_param="F,0,0,1,0,0.33053876,0,1 @ F,0,0,1,0,0,0,1 @ F,0,0,1,0,0,0,1 @ F,0,0,1,0,0,0,1 @ F,0,0,1,0,0,0,1 @ F,0,0,1,0,0,0,1 @ F,0,0,1,0,1.3835733,0,1 @ F,0,0,1,0,0.40642259,0,1 @ F,0,0,1,0,0.50433141,0,1 @ F,0,0,1,0,0.3352155,0,1 @ F,0,0,1,0,0,0,1 @ F,0,0,1,0,0,0,1 @ F,0,0,1,0,0,0,1 @ F,0,0,1,0,0,0,1 @ F,0,1,1,0,0.39272476,0,1"
       radius="5"
       unit="px"
       method="auto"
       mode="F"
       chamfer_steps="1"
       flexible="false"
       use_knot_distance="true"
       apply_no_radius="true"
       apply_with_radius="true"
       only_selected="true"
       hide_knots="false" /><inkscape:path-effect
       effect="fillet_chamfer"
       id="path-effect44-0"
       is_visible="true"
       lpeversion="1"
       nodesatellites_param="F,0,0,1,0,1.9135547,0,1 @ F,0,0,1,0,5.6617561,0,1 @ F,0,0,1,0,1.9189953,0,1 @ F,0,0,1,0,5.0719564,0,1 @ F,0,0,1,0,3.4510388,0,1 @ F,0,0,1,0,1.0608653,0,1 @ F,0,0,1,0,1.3197705,0,1 @ F,0,0,1,0,3.4641783,0,1 @ F,0,0,1,0,1.784548,0,1 @ F,0,0,1,0,1.1293466,0,1 @ F,0,0,1,0,0,0,1 @ F,0,0,1,0,1.8623571,0,1 @ F,0,0,1,0,1.8476371,0,1 @ F,0,0,1,0,0,0,1 @ F,0,0,1,0,3.3962254,0,1 @ F,0,0,1,0,0,0,1 @ F,0,0,1,0,1.8638194,0,1 @ F,0,0,1,0,3.4302216,0,1 @ IF,0,0,1,0,0.41385678,0,1 @ F,0,0,1,0,2.6364485,0,1 @ F,0,0,1,0,14.910289,0,1 @ F,0,0,1,0,0,0,1 @ F,0,0,1,0,1.6091673,0,1 @ F,0,0,1,0,1.6091673,0,1 @ F,0,0,1,0,0.87898676,0,1 @ F,0,0,1,0,2.2827663,0,1 @ F,0,0,1,0,0,0,1"
       radius="0"
       unit="px"
       method="auto"
       mode="F"
       chamfer_steps="1"
       flexible="false"
       use_knot_distance="true"
       apply_no_radius="true"
       apply_with_radius="true"
       only_selected="true"
       hide_knots="false" /><inkscape:path-effect
       effect="fill_between_many"
       method="bsplinespiro"
       autoreverse="false"
       close="false"
       join="false"
       linkedpaths="#path22,0,1"
       id="path-effect24" /></defs><g
     inkscape:groupmode="layer"
     id="layer2"
     inkscape:label="Bg-fill"
     style="display:inline;fill:#ffffff;fill-opacity:1"
     transform="translate(-2.4021013,-2.4004717)"><ellipse
       style="fill:#ffffff;fill-opacity:1;fill-rule:evenodd;stroke:none;stroke-width:0.268574;stroke-opacity:1"
       id="path29"
       cx="74.612617"
       cy="22.713844"
       rx="22.324997"
       ry="17.664289" /><ellipse
       style="fill:#ffffff;fill-opacity:1;fill-rule:evenodd;stroke:none;stroke-width:0.264583;stroke-opacity:1"
       id="path30"
       cx="78.10952"
       cy="98.782814"
       rx="7.0158248"
       ry="8.9802551" /></g><g
     id="g18"
     transform="translate(-20.83481,-85.980533)"
     style="display:inline;fill:#ffffff"
     inkscape:label="Outline"
     inkscape:path-effect="#path-effect34"><g
       inkscape:groupmode="layer"
       id="g12"
       inkscape:label="Laptop"
       style="fill:#ffffff"><g
         id="g11"
         style="fill:#ffffff"><path
           style="display:inline;opacity:1;fill:#ffffff;fill-opacity:1;fill-rule:evenodd;stroke:none;stroke-width:0.264583;stroke-opacity:1"
           id="rect11"
           width="83.672523"
           height="3.891258"
           x="84.867058"
           y="186.07957"
           ry="1.945629"
           sodipodi:type="rect"
           d="m 86.8125,183.43359 c -2.536408,0 -4.591797,2.05539 -4.591797,4.5918 0,2.53641 2.055389,4.5918 4.591797,4.5918 h 79.78125 c 2.53641,0 4.5918,-2.05539 4.5918,-4.5918 0,-2.53641 -2.05539,-4.5918 -4.5918,-4.5918 z" /><path
           style="opacity:1;fill:#ffffff;fill-opacity:1;fill-rule:evenodd;stroke:none;stroke-width:0.264583;stroke-opacity:1"
           d="m 131.70898,150.60742 c -2.64293,-0.0139 -5.04856,1.4929 -6.1875,3.87891 l -12.39453,25.96875 c -1.36216,2.85368 0.72644,6.17368 3.88868,6.17969 l 49.52539,0.0937 c 2.65289,0.005 5.05748,-1.53531 6.1582,-3.95118 l 11.73047,-25.74804 c 1.30882,-2.87268 -0.78638,-6.1494 -3.94336,-6.16602 z"
           id="path11"
           inkscape:original-d="m 115.51518,181.59488 12.39515,-25.96727 a 4.1703829,4.1703829 147.90932 0 1 3.78556,-2.37382 l 48.77659,0.2569 a 1.7118915,1.7118915 57.398319 0 1 1.54881,2.42163 l -11.73072,25.7468 a 4.1044269,4.1044269 147.30189 0 1 -3.74282,2.40267 l -49.5265,-0.0941 a 1.6723684,1.6723684 57.812891 0 1 -1.50607,-2.39278 z" /></g></g><g
       inkscape:groupmode="layer"
       id="g15"
       inkscape:label="Frog"
       style="display:inline;fill:#ffffff;fill-opacity:1"><g
         id="g13"
         inkscape:label="Body"
         style="fill:#ffffff;fill-opacity:1"><path
           id="path12"
           style="opacity:1;fill:#ffffff;fill-opacity:1;fill-rule:evenodd;stroke:none;stroke-width:0.264583;stroke-opacity:1"
           d="m 97.508916,97.100089 c -4.19388,0.137585 -8.488602,1.356126 -11.835937,3.152341 l -0.01758,0.0117 -0.01953,0.01 c -0.200847,0.11213 -0.529498,0.29412 -0.6875,0.3789 l -0.01758,0.0117 -0.01953,0.01 c -0.961951,0.53706 -3.688445,2.0807 -7.507812,4.4375 l -2.449219,1.51172 1.710937,2.3125 c 2.015744,2.72681 3.113245,6.07357 3.113282,9.51562 2.26e-4,8.72973 -6.804343,15.67774 -15.181641,15.67774 -5.127449,-1e-5 -9.913787,-2.66039 -12.728516,-7.12891 l -1.634765,-2.59375 -2.326172,1.99609 c -15.622293,13.40415 -30.77316,31.14978 -27.63086,48.5625 0.431005,2.38836 2.106323,5.43024 3.658204,7.09571 10.803664,11.59449 23.798143,11.45533 38.595703,11.55664 1.339071,0.009 5.189932,0.23963 6.177734,-2.2461 0.102002,-0.25668 0.164259,-0.51957 0.189453,-0.77929 2.891664,0.92617 4.932598,1.93787 5.826172,2.42187 0.751358,0.40698 1.933143,0.68457 2.867188,0.59375 1.397155,-0.13583 3.068242,-1.24245 2.867187,-3.31055 -0.08542,-0.87862 -0.520209,-1.54305 -0.810547,-1.92382 -1.088766,-1.42789 -3.428453,-2.92901 -5.820312,-4.05274 -3.006203,-1.41234 -7.460722,-2.74462 -14.84375,-3.57422 3.031285,-1.02754 5.713051,-2.28026 8.050781,-3.70117 0.189637,0.54557 0.500196,1.06838 0.939453,1.53906 2.971977,3.18459 5.430067,4.87435 7.822266,5.91602 3.544203,1.54331 9.317966,1.47556 12.644531,0.72852 2.725575,-0.61208 5.195788,-1.42538 7.515625,-2.70313 0.01014,-0.006 0.268705,-0.0975 0.498047,-0.10742 0.172006,-0.007 0.319968,0.0351 0.341797,0.0351 v -0.002 -0.002 l 3.259764,1.72265 c 2.62231,1.38619 5.3106,-0.87415 5.10156,-3.35742 0.88201,0.41913 1.95858,0.655 3.05274,0.21094 0.61356,-0.24901 1.12713,-0.6777 1.48047,-1.25586 0.9353,-1.53042 0.30258,-3.23039 -0.16992,-4.17578 -1.10247,-2.20582 -3.08286,-4.58579 -6.5,-6.06055 0.41615,-0.31051 0.79019,-0.66064 1.0957,-1.04101 3.80112,-4.73256 6.54588,-9.83291 9.20312,-14.625 0.65742,-1.1856 0.6897,-2.39345 0.26172,-3.37305 7.54747,-1.6253 17.99474,-4.99278 26.04883,-13.17969 1.0803,-1.09812 1.98342,-2.93906 1.76953,-4.71679 2.18827,-0.46818 4.04107,-2.57265 3.75977,-5.03516 -0.79061,-6.92116 -6.41708,-11.54607 -12.5,-14.92383 -5.91594,-3.28504 -13.28551,-5.92161 -18.06641,-8.21289 -0.46153,-0.22119 -1.36205,-0.8488 -2.25195,-1.57226 -0.77867,-0.63303 -1.9002,-1.61299 -2.63867,-2.19532 -3.49679,-2.757396 -7.94927,-3.697824 -12.193364,-3.558591 z m 0.189453,10.066411 c 4.007851,0 7.078121,3.00265 7.078121,6.61523 0,3.61257 -3.06963,6.61328 -7.078121,6.61328 -4.0085,0 -7.076173,-3.00003 -7.076171,-6.61328 -2e-6,-3.61325 3.068313,-6.61523 7.076171,-6.61523 z"
           transform="translate(0.52819309,-0.53954192)"
           sodipodi:nodetypes="cccccscscssscssscsscscsssssscccsssscsssssccsscscsscscscssccsssss"
           inkscape:label="main-body"
           inkscape:original-d="m 97.595761,99.744938 c -3.811657,0.125046 -7.657269,1.221802 -10.671183,2.839102 -0.199556,0.11141 -0.523101,0.29191 -0.724503,0.39998 -0.935954,0.52255 -3.627865,2.04813 -7.407817,4.38061 2.356817,3.1882 3.63281,7.08206 3.632853,11.08614 2.63e-4,10.12082 -7.982082,18.32551 -17.828886,18.3255 -6.046068,-1e-5 -11.680149,-3.14943 -14.966011,-8.3659 -15.599932,13.38496 -29.609701,30.23897 -26.750305,46.08401 0.326836,1.81112 1.73514,4.41725 2.990515,5.76451 9.994883,10.72651 21.971467,10.61081 36.677864,10.71149 4.818801,0.033 4.957105,-0.8884 0.395842,-2.4412 -2.074108,-0.70609 -4.043001,-1.39804 -5.385718,-1.87482 -0.969096,-0.34411 -0.917081,-0.6495 0.113688,-0.62528 9.365149,0.22002 16.262038,3.54875 18.312061,4.65914 0.351473,0.19038 0.952167,0.32603 1.350305,0.28732 1.479683,-0.14385 -0.465981,-2.30278 -4.631242,-4.25968 -4.020364,-1.88881 -11.291168,-3.79539 -27.068115,-4.13567 -0.485236,-0.0105 -1.270142,-0.0581 -1.751831,-0.11834 -0.695616,-0.087 -1.256997,-0.17432 -1.70894,-0.26045 -1.000199,-0.19061 -1.175938,-1.06797 0.08081,-1.16737 52.270583,-2.37093 39.497625,-56.62316 -3.897387,-20.75271 -3.65035,3.01739 -4.213467,1.90577 -0.700976,-1.27023 33.841183,-30.59933 52.846165,-0.0843 32.5422,15.24196 -0.843336,0.63658 -1.011941,1.75337 -0.290938,2.52595 2.747867,2.94444 4.944691,4.42487 6.944795,5.2958 2.862168,1.24632 7.957936,1.25703 11.008114,0.57205 2.564351,-0.57587 4.781003,-1.31711 6.817155,-2.43861 0.927926,-0.5111 2.390925,-0.60731 3.327962,-0.11213 l 3.286617,1.73684 c 0.77329,0.40877 1.56766,-0.50844 1.05265,-1.21543 l -1.55598,-2.13475 c -1.122578,-1.54029 -0.4673,-2.83181 1.38803,-2.42259 0.83802,0.18484 1.82475,0.63548 3.18534,1.75544 1.69657,1.39653 2.76744,0.91633 1.79059,-1.03817 -1.01473,-2.03028 -2.99685,-4.32637 -6.86625,-5.40743 -0.701161,-0.19589 -1.865768,-0.19543 -2.579687,-0.0486 -3.676644,0.75644 -5.994307,1.63151 -8.000028,2.21227 -2.484939,0.71952 -6.749232,-0.14856 -8.460982,-2.08825 -0.426011,-0.48274 -0.712965,-0.94786 -0.926559,-1.40405 -0.417421,-0.89152 0.03863,-1.18458 0.847494,-0.62167 2.043242,1.42197 3.921012,2.30573 5.507674,2.2438 0.620462,-0.0242 1.58277,-0.379 2.162142,-0.60979 2.555005,-1.01775 4.322166,-2.19289 9.962182,-2.59364 1.092794,-0.0777 2.568404,-0.76935 3.254584,-1.62367 3.63994,-4.53188 6.26314,-9.40238 8.95191,-14.25133 0.4986,-0.89918 0.0739,-1.57101 -0.95447,-1.56114 -2.04779,0.0196 -3.82835,-0.15172 -5.29632,-0.54622 -0.98385,-0.2644 -0.94667,-0.91978 0.0543,-1.10691 5.71626,-1.06873 21.74483,-2.53821 32.93391,-13.91181 1.46726,-1.49146 1.45811,-4.0315 -0.56734,-3.5033 -12.03478,3.13849 -18.97088,3.19051 -33.04917,2.9233 -9.972663,-0.76307 -12.35638,-0.86316 -18.602005,-3.22649 -0.712321,-0.26954 -0.06496,-0.81433 0.652156,-0.53588 5.741046,2.22924 29.588849,2.92676 54.579099,-1.08883 1.01631,-0.1633 1.89024,-1.14252 1.77353,-2.16421 -1.29169,-11.3078 -18.76149,-16.1047 -29.07988,-21.04987 -1.70778,-0.81847 -3.90428,-2.90879 -5.38675,-4.07779 -2.87772,-2.26923 -6.6554,-3.116078 -10.467058,-2.991032 z m 0.102836,4.775932 c 5.370103,0 9.723433,4.14603 9.723433,9.26042 0,5.11439 -4.35333,9.26042 -9.723433,9.26042 -5.370108,0 -9.723439,-4.14603 -9.723437,-9.26042 -2e-6,-5.11439 4.353329,-9.26042 9.723437,-9.26042 z" /></g><path
         style="fill:#ffffff;fill-opacity:1;fill-rule:evenodd;stroke-width:0.27815"
         d="m 133.75391,117.87109 c -0.19114,0.007 -0.35486,0.028 -0.45899,0.043 -1.11136,0.15945 -3.46392,0.47308 -4.28515,2.30469 -0.41677,0.92952 -0.27463,1.89271 0.0957,2.58789 0.78694,1.47726 2.7933,2.08062 3.44336,2.29297 0.84975,0.27758 2.96463,0.85547 3.98828,0.85547 h 0.2793 c 1.2825,0 2.95174,-0.81016 3.10156,-2.73828 0.20627,-2.65464 -2.95098,-4.56074 -4.22656,-5.02149 -0.53984,-0.19499 -1.21762,-0.35029 -1.9375,-0.32422 z"
         id="path14"
         sodipodi:nodetypes="ssss"
         inkscape:label="Nostril"
         inkscape:original-d="m 136.5376,123.30879 c -0.92393,0 -8.97592,-1.90025 -2.8684,-2.77652 1.89498,-0.27188 4.73388,2.77652 3.1477,2.77652 z" /><path
         style="fill:#ffffff;fill-opacity:1;fill-rule:evenodd;stroke-width:0.275309"
         id="rect14"
         width="14.351696"
         height="5.665029"
         x="91.233795"
         y="111.0693"
         sodipodi:type="rect"
         ry="2.8325145"
         rx="3.1788445"
         inkscape:label="Pupil"
         d="m 94.412109,108.42188 c -3.057437,0 -5.824218,2.28797 -5.824218,5.48046 0,3.1925 2.768756,5.47852 5.824218,5.47852 h 7.994141 c 3.05251,0 5.82617,-2.2869 5.82617,-5.47852 0,-3.18853 -2.77465,-5.48047 -5.82617,-5.48046 z" /><path
         id="path15"
         style="display:inline;opacity:1;fill:#ffffff;fill-opacity:1;fill-rule:evenodd;stroke:none;stroke-width:0.264583;stroke-opacity:1"
         d="m 138.97376,128.40673 -2.26367,1.82422 c -2.4805,2.00642 -7.85328,5.3751 -13.16602,7.11328 -2.67695,0.87583 -7.08716,1.73828 -11.29101,2.39453 -3.15318,0.49223 -6.2188,0.88528 -8.49024,1.1543 -0.90678,0.10739 -1.68791,0.19292 -2.30078,0.25976 -0.36494,0.0398 -0.66823,0.0732 -0.90234,0.0977 -0.35782,0.0373 -0.34401,0.0361 -0.53321,0.0547 l -0.0176,0.002 -0.01954,0.002 c -1.37783,0.15407 -2.653398,0.67609 -3.609375,1.68164 -1.927981,2.02795 -1.807556,5.36348 -1.869141,7.63672 -0.04749,1.7531 -0.126695,3.61915 -0.517578,5.56836 -0.407288,2.03102 -1.138266,4.14644 -2.558593,6.35938 -1.420361,2.21299 -3.543923,4.53692 -6.830079,6.87695 l -6.214843,4.375 7.595703,0.57031 c 0.257007,0.0192 0.527024,0.0263 0.796875,0.0156 1.152948,-0.0449 2.588428,-0.61507 3.064453,-0.80469 2.824141,-1.12496 3.839227,-2.02928 9.144531,-2.40625 1.758232,-0.12496 3.968732,-1.11445 5.191402,-2.63672 3.80635,-4.73905 6.55472,-9.84649 9.21094,-14.63672 0.64924,-1.17085 0.69765,-2.36641 0.30078,-3.35156 7.54788,-1.63565 17.96188,-5.01689 25.9961,-13.1836 1.55813,-1.58381 2.47331,-4.41566 0.98242,-6.57226 l -0.01,-0.0156 z"
         transform="translate(0.52819307,-0.53954004)"
         inkscape:path-effect="#path-effect20"
         inkscape:original-d="m 138.42864,132.35429 c -2.78544,2.25309 -8.27415,5.70034 -14.03603,7.58547 -7.48772,2.44979 -24.09808,4.08204 -24.09808,4.08204 -7.334681,0.82012 3.55288,15.05882 -14.104562,27.63242 0.164548,0.0123 0.326403,0.0155 0.485242,0.009 0.620462,-0.0242 1.58277,-0.37899 2.162142,-0.60978 2.555005,-1.01775 4.322166,-2.19289 9.962182,-2.59364 1.092794,-0.0777 2.568406,-0.76935 3.254586,-1.62367 3.63994,-4.53188 6.26313,-9.40238 8.9519,-14.25133 0.4986,-0.89918 0.0739,-1.57101 -0.95446,-1.56114 -2.04779,0.0196 -3.82835,-0.15172 -5.29632,-0.54622 -0.98385,-0.2644 -0.94671,-0.91978 0.0543,-1.10691 5.71626,-1.06873 21.74483,-2.53822 32.93391,-13.91182 0.95663,-0.9724 1.20191,-2.35734 0.68523,-3.10472 z"
         sodipodi:nodetypes="cscccccsscscscc"
         inkscape:label="Belly" /></g><g
       id="g17"
       inkscape:label="Headset"
       style="fill:#ffffff"><path
         id="path16"
         style="fill:#ffffff;fill-rule:evenodd;stroke:none;stroke-width:0.159306;stroke-opacity:0"
         inkscape:label="path23"
         d="m 88.322266,87.042969 c -2.417368,0.03899 -4.895918,0.325209 -7.121094,0.876953 -6.205866,1.53878 -12.036945,5.227652 -15.949219,10.101562 l -2.916016,3.632816 4.613282,0.64453 c 2.033948,0.28406 3.930012,1.13623 5.601562,2.46875 l 2.361328,1.88476 1.554688,-2.59179 c 0.483216,-0.80483 1.348201,-2.0134 3.771484,-3.99414 2.349345,-1.920307 5.459325,-3.349585 8.603516,-3.925785 3.82431,-0.700836 7.72779,-0.320674 11.240233,1.080078 1.73564,0.692162 3.40999,1.670479 4.82813,2.814457 l 0.21093,0.16992 c 1.03736,0.83626 2.4942,0.91976 3.62305,0.16992 l 0.16406,-0.10742 c 0.18132,-0.12025 0.58372,-0.384709 0.81055,-0.541018 0.0375,-0.02582 0.0977,-0.06728 0.14648,-0.101562 1.51268,-1.06231 1.7039,-3.242698 0.39844,-4.550781 -0.0183,-0.01843 -0.0634,-0.0642 -0.10742,-0.107422 -0.55596,-0.545743 -1.58083,-1.438917 -2.17383,-1.904297 -3.65583,-2.868988 -8.066599,-4.758413 -12.658201,-5.392578 -0.0084,-0.0012 -0.018,-0.0023 -0.0293,-0.0039 -0.03418,-0.0073 -0.07311,-0.0085 -0.107422,-0.01563 -2.143184,-0.446822 -4.522939,-0.645196 -6.865234,-0.607422 z"
         inkscape:original-d="m 88.365637,89.687283 c -2.256261,0.03639 -4.522397,0.304162 -6.528161,0.801502 -5.672255,1.406468 -10.975364,4.770204 -14.522816,9.18962 2.534151,0.353925 4.877195,1.419375 6.885033,3.019975 0.628266,-1.04642 1.759221,-2.55149 4.36496,-4.681372 2.726477,-2.228563 6.210497,-3.820891 9.800536,-4.478797 4.304641,-0.78886 8.712688,-0.363089 12.698101,1.226282 1.98409,0.791243 3.87469,1.892984 5.50687,3.209623 l 0.21161,0.171049 a 0.46779662,0.53920008 0 0 0 0.50168,0.02532 L 107.4453,98.063 c 0.21422,-0.142066 0.56087,-0.371055 0.77157,-0.516248 0.0451,-0.03107 0.0874,-0.06063 0.12689,-0.08837 0.16973,-0.119197 0.19453,-0.368266 0.0453,-0.517797 -0.0267,-0.02683 -0.0556,-0.05527 -0.0856,-0.08475 -0.51615,-0.506668 -1.39299,-1.272254 -1.95338,-1.71204 -3.29328,-2.584472 -7.266406,-4.282969 -11.389431,-4.852417 -0.04259,-0.0059 -0.08467,-0.01149 -0.125981,-0.01705 -1.966439,-0.428035 -4.212721,-0.623431 -6.468981,-0.587045 z" /><path
         style="display:inline;fill:#ffffff;fill-opacity:1;fill-rule:evenodd;stroke:none;stroke-width:0.261149;stroke-opacity:1"
         id="ellipse21"
         inkscape:label="path53"
         sodipodi:type="arc"
         sodipodi:cx="65.162621"
         sodipodi:cy="117.94593"
         sodipodi:rx="15.362346"
         sodipodi:ry="15.750367"
         d="m 65.162109,99.548828 c -9.989212,0 -18.007812,8.263892 -18.007812,18.396482 0,10.1326 8.018192,18.39844 18.007812,18.39844 9.989621,0 18.009766,-8.26544 18.009766,-18.39844 0,-10.13299 -8.020553,-18.396482 -18.009766,-18.396482 z" /></g></g><g
     id="g32"
     transform="translate(-20.83481,-85.980533)"
     style="display:inline;fill:#ffffff"
     inkscape:label="Logo"><g
       inkscape:groupmode="layer"
       id="g26"
       inkscape:label="Laptop"
       style="fill:#ffffff"><g
         id="g25"
         style="fill:#333333"><rect
           style="display:inline;opacity:1;fill:#333333;fill-opacity:1;fill-rule:evenodd;stroke:none;stroke-width:0.264583;stroke-opacity:1"
           id="rect25"
           width="83.672523"
           height="3.891258"
           x="84.867058"
           y="186.07957"
           ry="1.945629"
           sodipodi:type="rect" /><path
           style="opacity:1;fill:#333333;fill-opacity:1;fill-rule:evenodd;stroke:none;stroke-width:0.264583;stroke-opacity:1"
           d="m 115.51518,181.59488 12.39515,-25.96727 a 4.1703829,4.1703829 147.90932 0 1 3.78556,-2.37382 l 48.77659,0.2569 a 1.7118915,1.7118915 57.398319 0 1 1.54881,2.42163 l -11.73072,25.7468 a 4.1044269,4.1044269 147.30189 0 1 -3.74282,2.40267 l -49.5265,-0.0941 a 1.6723684,1.6723684 57.812891 0 1 -1.50607,-2.39278 z"
           id="path25" /></g></g><g
       inkscape:groupmode="layer"
       id="g28"
       inkscape:label="Frog"
       style="display:inline;fill:#91d06c;fill-opacity:1"><g
         id="g27"
         inkscape:label="Body"
         style="fill:#53813c;fill-opacity:1"><path
           id="path26"
           style="opacity:1;fill:#53813c;fill-opacity:1;fill-rule:evenodd;stroke:none;stroke-width:0.264583;stroke-opacity:1"
           d="m 97.595761,99.744938 c -3.811657,0.125046 -7.657269,1.221802 -10.671183,2.839102 -0.199556,0.11141 -0.523101,0.29191 -0.724503,0.39998 -0.935954,0.52255 -3.627865,2.04813 -7.407817,4.38061 2.356817,3.1882 3.63281,7.08206 3.632853,11.08614 2.63e-4,10.12082 -7.982082,18.32551 -17.828886,18.3255 -6.046068,-1e-5 -11.680149,-3.14943 -14.966011,-8.3659 -15.599932,13.38496 -29.609701,30.23897 -26.750305,46.08401 0.326836,1.81112 1.73514,4.41725 2.990515,5.76451 9.994883,10.72651 21.971467,10.61081 36.677864,10.71149 4.818801,0.033 4.957105,-0.8884 0.395842,-2.4412 -2.074108,-0.70609 -4.043001,-1.39804 -5.385718,-1.87482 -0.969096,-0.34411 -0.917081,-0.6495 0.113688,-0.62528 9.365149,0.22002 16.262038,3.54875 18.312061,4.65914 0.351473,0.19038 0.952167,0.32603 1.350305,0.28732 1.479683,-0.14385 -0.465981,-2.30278 -4.631242,-4.25968 -4.020364,-1.88881 -11.291168,-3.79539 -27.068115,-4.13567 -0.485236,-0.0105 -1.270142,-0.0581 -1.751831,-0.11834 -0.695616,-0.087 -1.256997,-0.17432 -1.70894,-0.26045 -1.000199,-0.19061 -1.175938,-1.06797 0.08081,-1.16737 52.270583,-2.37093 39.497625,-56.62316 -3.897387,-20.75271 -3.65035,3.01739 -4.213467,1.90577 -0.700976,-1.27023 33.841183,-30.59933 52.846165,-0.0843 32.5422,15.24196 -0.843336,0.63658 -1.011941,1.75337 -0.290938,2.52595 2.747867,2.94444 4.944691,4.42487 6.944795,5.2958 2.862168,1.24632 7.957936,1.25703 11.008114,0.57205 2.564351,-0.57587 4.781003,-1.31711 6.817155,-2.43861 0.927926,-0.5111 2.390925,-0.60731 3.327962,-0.11213 l 3.286617,1.73684 c 0.77329,0.40877 1.56766,-0.50844 1.05265,-1.21543 l -1.55598,-2.13475 c -1.122578,-1.54029 -0.4673,-2.83181 1.38803,-2.42259 0.83802,0.18484 1.82475,0.63548 3.18534,1.75544 1.69657,1.39653 2.76744,0.91633 1.79059,-1.03817 -1.01473,-2.03028 -2.99685,-4.32637 -6.86625,-5.40743 -0.701161,-0.19589 -1.865768,-0.19543 -2.579687,-0.0486 -3.676644,0.75644 -5.994307,1.63151 -8.000028,2.21227 -2.484939,0.71952 -6.749232,-0.14856 -8.460982,-2.08825 -0.426011,-0.48274 -0.712965,-0.94786 -0.926559,-1.40405 -0.417421,-0.89152 0.03863,-1.18458 0.847494,-0.62167 2.043242,1.42197 3.921012,2.30573 5.507674,2.2438 0.620462,-0.0242 1.58277,-0.379 2.162142,-0.60979 2.555005,-1.01775 4.322166,-2.19289 9.962182,-2.59364 1.092794,-0.0777 2.568404,-0.76935 3.254584,-1.62367 3.63994,-4.53188 6.26314,-9.40238 8.95191,-14.25133 0.4986,-0.89918 0.0739,-1.57101 -0.95447,-1.56114 -2.04779,0.0196 -3.82835,-0.15172 -5.29632,-0.54622 -0.98385,-0.2644 -0.94667,-0.91978 0.0543,-1.10691 5.71626,-1.06873 18.27661,-0.39947 29.46569,-11.77307 1.46726,-1.49146 2.26974,-3.33903 0.21317,-2.94922 -12.33049,2.33715 -18.13911,3.16979 -31.65185,2.24279 -9.972661,-0.76307 -12.104539,-1.96672 -17.311615,-5.23878 -0.644862,-0.40522 -0.06496,-0.81433 0.652156,-0.53588 5.741046,2.22924 29.588849,2.92676 54.579099,-1.08883 1.01631,-0.1633 1.89024,-1.14252 1.77353,-2.16421 -1.29169,-11.3078 -18.76149,-16.1047 -29.07988,-21.04987 -1.70778,-0.81847 -3.90428,-2.90879 -5.38675,-4.07779 -2.87772,-2.26923 -6.6554,-3.116078 -10.467058,-2.991032 z m 0.102836,4.775932 c 5.370103,0 9.723433,4.14603 9.723433,9.26042 0,5.11439 -4.35333,9.26042 -9.723433,9.26042 -5.370108,0 -9.723439,-4.14603 -9.723437,-9.26042 -2e-6,-5.11439 4.353329,-9.26042 9.723437,-9.26042 z"
           transform="translate(0.52819309,-0.53954192)"
           sodipodi:nodetypes="cccccscscssscssscsscscsssssscccsssscsssssccsscscsscscscssccsssss"
           inkscape:label="main-body" /></g><path
         style="display:none;fill:#f9f9f9;fill-opacity:1;fill-rule:evenodd;stroke-width:0.27815"
         d="m 133.83672,122.81772 c -0.92393,0 -8.97592,-1.90025 -2.8684,-2.77652 1.89498,-0.27188 4.73388,2.77652 3.1477,2.77652 z"
         id="path27"
         sodipodi:nodetypes="ssss"
         inkscape:label="Nostril" /><rect
         style="fill:#1a1a1a;fill-opacity:1;fill-rule:evenodd;stroke-width:0.229008"
         id="rect27"
         width="11.4571"
         height="4.9101257"
         x="92.554886"
         y="111.82419"
         sodipodi:type="rect"
         ry="2.4550629"
         rx="2.5377028"
         inkscape:label="Pupil" /></g><g
       id="g31"
       inkscape:label="Headset"
       style="fill:#333333"><path
         id="path31"
         style="fill:#333333;fill-rule:evenodd;stroke:none;stroke-width:0.159306;stroke-opacity:0"
         inkscape:label="path23"
         d="m 88.365637,89.687283 c -2.256261,0.03639 -4.522397,0.304162 -6.528161,0.801502 -5.672255,1.406468 -10.975364,4.770204 -14.522816,9.18962 2.534151,0.353925 4.877195,1.419375 6.885033,3.019975 0.628266,-1.04642 1.759221,-2.55149 4.36496,-4.681372 2.726477,-2.228563 6.210497,-3.820891 9.800536,-4.478797 4.304641,-0.78886 8.712688,-0.363089 12.698101,1.226282 1.98409,0.791243 3.87469,1.892984 5.50687,3.209623 l 0.21161,0.171049 a 0.46779662,0.53920008 0 0 0 0.50168,0.02532 L 107.4453,98.063 c 0.21422,-0.142066 0.56087,-0.371055 0.77157,-0.516248 0.0451,-0.03107 0.0874,-0.06063 0.12689,-0.08837 0.16973,-0.119197 0.19453,-0.368266 0.0453,-0.517797 -0.0267,-0.02683 -0.0556,-0.05527 -0.0856,-0.08475 -0.51615,-0.506668 -1.39299,-1.272254 -1.95338,-1.71204 -3.29328,-2.584472 -7.266406,-4.282969 -11.389431,-4.852417 -0.04259,-0.0059 -0.08467,-0.01149 -0.125981,-0.01705 -1.966439,-0.428035 -4.212721,-0.623431 -6.468981,-0.587045 z" /><ellipse
         style="display:inline;fill:#333333;fill-opacity:1;fill-rule:evenodd;stroke:none;stroke-width:0.261149;stroke-opacity:1"
         id="ellipse31"
         cx="65.162621"
         cy="117.94593"
         rx="15.362346"
         ry="15.750367"
         inkscape:label="path53" /></g></g></svg>
