<?xml version="1.0" encoding="UTF-8" standalone="no"?>
<!-- Uploaded to: SVG Repo, www.svgrepo.com, Generator: SVG Repo Mixer Tools -->

<svg
   fill="#000000"
   width="658.61053"
   height="435.89319"
   viewBox="-1 0 15.642 10.352463"
   class="cf-icon-svg"
   version="1.1"
   id="svg1"
   sodipodi:docname="cap.svg"
   inkscape:version="1.4.4 (dcaf3e7d9e, 2026-05-05)"
   xmlns:inkscape="http://www.inkscape.org/namespaces/inkscape"
   xmlns:sodipodi="http://sodipodi.sourceforge.net/DTD/sodipodi-0.dtd"
   xmlns="http://www.w3.org/2000/svg"
   xmlns:svg="http://www.w3.org/2000/svg">
  <defs
     id="defs1" />
  <sodipodi:namedview
     id="namedview1"
     pagecolor="#ffffff"
     bordercolor="#000000"
     borderopacity="0.25"
     inkscape:showpageshadow="2"
     inkscape:pageopacity="0.0"
     inkscape:pagecheckerboard="0"
     inkscape:deskcolor="#d1d1d1"
     inkscape:zoom="1.08625"
     inkscape:cx="329.11392"
     inkscape:cy="199.30955"
     inkscape:window-width="1876"
     inkscape:window-height="996"
     inkscape:window-x="0"
     inkscape:window-y="0"
     inkscape:window-maximized="1"
     inkscape:current-layer="svg1" />
  <path
     d="m 14.462,3.1344629 c 0.24,0.102 0.24,0.269 0,0.37 l -7.204,3.058 a 1.288,1.288 0 0 1 -0.874,0 l -7.204,-3.057 c -0.24,-0.102 -0.24,-0.27 0,-0.371 L 6.384,0.07646293 a 1.287,1.287 0 0 1 0.874,0 z m -6.833,4.303 3.983,-1.69 v 2.081 c 0,1.394 -2.145,2.5240001 -4.791,2.5240001 -2.646,0 -4.79,-1.1300001 -4.79,-2.5240001 v -2.082 l 3.982,1.69 a 2.226,2.226 0 0 0 1.616,0 z m 4.94,1.677 h 1.642 v -1.091 a 0.822,0.822 0 1 0 -1.643,0 z m 0.82,-3.603 a 0.554,0.554 0 1 0 -0.553,-0.554 0.554,0.554 0 0 0 0.554,0.554 z m 0,1.415 a 0.554,0.554 0 1 0 -0.553,-0.555 0.554,0.554 0 0 0 0.554,0.555 z"
     id="path1"
     style="fill:#9ca3af;fill-opacity:1" />
</svg>
