<?xml version="1.0" encoding="UTF-8" standalone="no"?>
<!-- Uploaded to: SVG Repo, www.svgrepo.com, Generator: SVG Repo Mixer Tools -->

<svg
   width="714.46924"
   height="681.2099"
   viewBox="0 0 457.26031 435.97434"
   version="1.1"
   id="svg1"
   sodipodi:docname="star-gold.svg"
   inkscape:version="1.4.3 (0d15f75042, 2025-12-25)"
   xmlns:inkscape="http://www.inkscape.org/namespaces/inkscape"
   xmlns:sodipodi="http://sodipodi.sourceforge.net/DTD/sodipodi-0.dtd"
   xmlns="http://www.w3.org/2000/svg"
   xmlns:svg="http://www.w3.org/2000/svg">
  <sodipodi:namedview
     id="namedview1"
     pagecolor="#ffffff"
     bordercolor="#000000"
     borderopacity="0.25"
     inkscape:showpageshadow="2"
     inkscape:pageopacity="0.0"
     inkscape:pagecheckerboard="0"
     inkscape:deskcolor="#d1d1d1"
     inkscape:zoom="0.48567521"
     inkscape:cx="357.23462"
     inkscape:cy="340.76271"
     inkscape:window-width="1876"
     inkscape:window-height="996"
     inkscape:window-x="0"
     inkscape:window-y="0"
     inkscape:window-maximized="1"
     inkscape:current-layer="svg1" />
  <defs
     id="defs1" />
  <path
     fill="#000000"
     d="m 228.63016,0.002 c -22.458,0 -66.472,110.3 -84.64,123.502 -18.17,13.2 -136.6739981,20.975 -143.6139981,42.334 -6.94,21.358 84.3620001,97.303 91.3020001,118.662 6.94,21.36 -22.286,136.465 -4.116,149.665 18.169998,13.2 118.609998,-50.164 141.067998,-50.164 22.458,0 122.9,63.365 141.068,50.164 18.17,-13.2 -11.056,-128.306 -4.116,-149.665 6.94,-21.36 98.242,-97.304 91.302,-118.663 -6.94,-21.36 -125.444,-29.134 -143.613,-42.335 C 295.10316,110.302 251.08916,0 228.63116,0 Z"
     id="path1"
     style="fill:#edcd6b;fill-opacity:1" />
</svg>
